<svg width="146" height="42" viewBox="0 0 146 42" fill="none" xmlns="http://www.w3.org/2000/svg">
<path d="M9.92803 0.00324059C10.2116 -0.0284416 10.4676 0.175688 10.4993 0.459295L12.6868 19.9905C12.7186 20.2742 12.5134 20.5301 12.2298 20.5618L2.76104 21.6224C2.47757 21.6539 2.22255 21.4498 2.19073 21.1663L0.00322723 1.6341C-0.0283824 1.35055 0.175716 1.09457 0.459282 1.06281L9.92803 0.00324059ZM23.7913 7.49152C24.075 7.45975 24.3308 7.66392 24.3626 7.94758L25.5501 18.5491C25.5819 18.8327 25.3776 19.0885 25.094 19.1204L15.6253 20.181C15.3417 20.2127 15.0858 20.0085 15.054 19.7249L13.8665 9.12336C13.8347 8.8397 14.0389 8.58384 14.3226 8.55207L23.7913 7.49152ZM36.4085 2.41437C36.6921 2.38265 36.9479 2.58688 36.9798 2.87043L38.5628 17.0032C38.5946 17.2869 38.3894 17.5428 38.1058 17.5745L28.637 18.6351C28.3536 18.6666 28.0986 18.4624 28.0667 18.179L26.4837 4.04621C26.4519 3.76255 26.6561 3.50669 26.9398 3.47492L36.4085 2.41437Z" fill="url(#paint0_linear_1_5916)"/>
<path d="M38.4184 20.3772C38.7021 20.3455 38.9579 20.5496 38.9897 20.8333L41.1772 40.3645C41.2089 40.6482 41.0048 40.9041 40.7211 40.9358L31.2524 41.9964C30.9688 42.0281 30.7129 41.8239 30.6811 41.5403L28.4936 22.0081C28.4621 21.7247 28.6663 21.4697 28.9497 21.4378L38.4184 20.3772ZM12.5444 23.3626C12.8279 23.3309 13.0839 23.5351 13.1157 23.8186L14.6977 37.9514C14.7294 38.2351 14.5253 38.491 14.2417 38.5227L4.7729 39.5833C4.48944 39.6149 4.23353 39.4106 4.20161 39.1272L2.61958 24.9944C2.58782 24.7108 2.79199 24.4549 3.07564 24.4231L12.5444 23.3626ZM25.4321 21.9007C25.7157 21.869 25.9716 22.0731 26.0034 22.3567L27.1909 32.9583C27.2226 33.2419 27.0175 33.4978 26.7338 33.5296L17.2846 34.5882C17.0013 34.6197 16.7453 34.4154 16.7133 34.1321L15.5268 23.5296C15.4952 23.246 15.6993 22.99 15.9829 22.9583L25.4321 21.9007Z" fill="url(#paint1_linear_1_5916)"/>
<path d="M59.8413 28.4441H56.6834V21.9324H49.5184V28.4441H46.3606V12.4153H49.5184V18.8834H56.6834V12.4153H59.8413V28.4441ZM77.2986 12.4153L71.2878 23.4569V28.4441H68.13V23.4569L62.2281 12.4153H66.1264L69.8069 19.8199L73.4003 12.4153H77.2986ZM87.4804 16.2918C86.0866 15.5223 84.8743 15.1376 83.8435 15.1376C83.1466 15.1376 82.6021 15.2755 82.2101 15.5514C81.8326 15.8272 81.6439 16.241 81.6439 16.7927C81.6439 17.3009 81.9197 17.751 82.4714 18.143C83.0377 18.5205 83.7854 18.8834 84.7146 19.2319C85.4696 19.5077 86.1157 19.8271 86.6529 20.1901C87.1901 20.5386 87.6329 21.025 87.9813 21.6493C88.3443 22.2736 88.5258 23.0648 88.5258 24.0231C88.5258 24.8507 88.308 25.6202 87.8724 26.3316C87.4514 27.0285 86.8271 27.5875 85.9995 28.0085C85.1719 28.415 84.1847 28.6183 83.0377 28.6183C82.0794 28.6183 81.1284 28.4804 80.1847 28.2045C79.241 27.9141 78.3626 27.4786 77.5496 26.8978L78.9434 24.4369C79.4951 24.8434 80.1266 25.1773 80.8381 25.4387C81.5495 25.7 82.1883 25.8307 82.7546 25.8307C83.4224 25.8307 84.0032 25.6928 84.4968 25.4169C84.9905 25.1265 85.2373 24.6619 85.2373 24.0231C85.2373 23.1955 84.4605 22.4768 82.907 21.867C81.9923 21.5041 81.2301 21.1556 80.6203 20.8217C80.0105 20.4878 79.4806 20.0086 79.0305 19.3843C78.5949 18.76 78.3771 17.976 78.3771 17.0323C78.3771 15.653 78.8272 14.5423 79.7274 13.7002C80.6421 12.8581 81.8544 12.4008 83.3643 12.3282C84.5549 12.3282 85.5494 12.4661 86.348 12.742C87.1465 13.0033 87.9233 13.3808 88.6782 13.8744L87.4804 16.2918ZM99.5458 25.308H94.2319L92.9252 28.4441H89.8109L97.0413 11.7837H97.2155L104.446 28.4441H100.787L99.5458 25.308ZM98.5004 22.6511L96.9541 18.7528L95.3426 22.6511H98.5004ZM115.036 19.9941C115.878 20.3861 116.532 20.9015 116.996 21.5404C117.476 22.1647 117.715 22.8906 117.715 23.7182C117.715 25.3443 117.178 26.5421 116.104 27.3116C115.044 28.0666 113.715 28.4441 112.118 28.4441H106.782V12.4153H111.487C113.185 12.4153 114.521 12.7637 115.494 13.4606C116.466 14.143 116.953 15.1376 116.953 16.4443C116.953 17.2428 116.786 17.947 116.452 18.5568C116.118 19.152 115.646 19.6311 115.036 19.9941ZM109.94 18.9705H111.857C112.438 18.9705 112.888 18.7963 113.207 18.4479C113.526 18.0849 113.686 17.6421 113.686 17.1194C113.686 16.5822 113.505 16.1757 113.142 15.8998C112.779 15.6094 112.278 15.4642 111.639 15.4642H109.94V18.9705ZM111.966 25.504C112.706 25.504 113.301 25.3588 113.751 25.0684C114.216 24.7635 114.448 24.3135 114.448 23.7182C114.448 22.5857 113.548 22.0195 111.748 22.0195H109.94V25.504H111.966ZM128.257 25.308H122.943L121.637 28.4441H118.522L125.753 11.7837H125.927L133.157 28.4441H129.499L128.257 25.308ZM127.212 22.6511L125.666 18.7528L124.054 22.6511H127.212ZM143.91 12.4153V15.4642H140.011V28.4441H136.854V15.4642H133.108V12.4153H143.91Z" fill="url(#paint2_linear_1_5916)"/>
<defs>
<linearGradient id="paint0_linear_1_5916" x1="-0.000679016" y1="10.8126" x2="38.5654" y2="10.8126" gradientUnits="userSpaceOnUse">
<stop stop-color="#0096FF"/>
<stop offset="1" stop-color="#005A99"/>
</linearGradient>
<linearGradient id="paint1_linear_1_5916" x1="19.9224" y1="39.6677" x2="16.4223" y2="8.94531" gradientUnits="userSpaceOnUse">
<stop stop-color="#0096FF" stop-opacity="0"/>
<stop offset="1" stop-color="#005A99" stop-opacity="0.7"/>
</linearGradient>
<linearGradient id="paint2_linear_1_5916" x1="44.2916" y1="23.4441" x2="145.292" y2="23.4441" gradientUnits="userSpaceOnUse">
<stop stop-color="#0096FF"/>
<stop offset="1" stop-color="#005A99"/>
</linearGradient>
</defs>
</svg>
